<svg width="50" height="50" viewBox="0 0 50 50" fill="none" xmlns="http://www.w3.org/2000/svg">
    <g clip-path="url(#clip0_458_421)">
        <path
            d="M0 24.9844C0 31.6106 2.63227 37.9655 7.31775 42.651C12.0032 47.3365 18.3581 49.9687 24.9844 49.9687C31.6106 49.9687 37.9655 47.3365 42.651 42.651C47.3365 37.9655 49.9687 31.6106 49.9687 24.9844C49.9687 18.3581 47.3365 12.0032 42.651 7.31775C37.9655 2.63227 31.6106 0 24.9844 0C18.3581 0 12.0032 2.63227 7.31775 7.31775C2.63227 12.0032 0 18.3581 0 24.9844Z"
            fill="#2A5F9E" />
        <path
            d="M25.0143 8.16113L25.6084 10.006H27.5159L25.9524 11.1317L26.5465 12.9766L25.0143 11.8509L23.4508 12.9766L24.045 11.1317L22.4815 10.006H24.3889L25.0143 8.16113ZM25.0143 36.4913L25.6084 38.3362H27.5159L25.9524 39.4619L26.5465 41.3069L25.0143 40.1499L23.4508 41.3069L24.045 39.4619L22.4815 38.3362H24.3889L25.0143 36.4913ZM32.0187 34.2087L32.6128 36.0223H34.5515L32.9881 37.1793L33.5822 38.9929L32.0187 37.8672L30.4552 38.9929L31.0493 37.1793L29.4859 36.0223H31.4246L32.0187 34.2087ZM36.8655 29.3619L37.4596 31.2068H39.367L37.8036 32.3325L38.3977 34.1774L36.8655 33.0204L35.2707 34.1774L35.8961 32.3325L34.3326 31.2068H36.2401L36.8655 29.3619ZM39.1482 22.3262L39.7423 24.1711H41.6497L40.0862 25.2968L40.7116 27.1417L39.1482 25.9848L37.5847 27.1417L38.1788 25.2968L36.6153 24.1711H38.5228L39.1482 22.3262ZM36.8655 15.2906L37.4596 17.1355H39.367L37.8036 18.2612L38.3977 20.1061L36.8655 18.9491L35.2707 20.1061L35.8961 18.2612L34.3326 17.1355H36.2401L36.8655 15.2906ZM32.0187 10.4438L32.6128 12.2887H34.5515L32.9881 13.4144L33.5822 15.2593L32.0187 14.1336L30.4552 15.2593L31.0493 13.4144L29.4859 12.2887H31.4246L32.0187 10.4438ZM17.9787 34.2087L17.3846 36.0223H15.4458L17.0093 37.1793L16.4152 38.9929L17.9787 37.8672L19.5422 38.9929L18.948 37.1793L20.5115 36.0223H18.5728L17.9787 34.2087ZM13.1632 29.3619L12.5378 31.2068H10.6303L12.1938 32.3325L11.5997 34.1774L13.1632 33.0204L14.7266 34.1774L14.1013 32.3325L15.6647 31.2068H13.7573L13.1632 29.3619ZM10.8492 22.3262L10.2551 24.1711H8.34766L9.91113 25.2968L9.28574 27.1417L10.8492 25.9848L12.4127 27.1417L11.8186 25.2968L13.3821 24.1711H11.4746L10.8492 22.3262ZM13.1632 15.2906L12.5378 17.1355H10.6303L12.1938 18.2612L11.5997 20.1061L13.1632 18.9491L14.7266 20.1061L14.1013 18.2612L15.6647 17.1355H13.7573L13.1632 15.2906ZM17.9787 10.4438L17.3846 12.2887H15.4458L17.0093 13.4144L16.4152 15.2593L17.9787 14.1336L19.5422 15.2593L18.948 13.4144L20.5115 12.2887H18.5728L17.9787 10.4438Z"
            fill="#FFCE31" />
    </g>
    <defs>
        <clipPath id="clip0_458_421">
            <rect width="50" height="50" fill="white" />
        </clipPath>
    </defs>
</svg>