<svg width="50" height="50" viewBox="0 0 50 50" fill="none" xmlns="http://www.w3.org/2000/svg">
    <g clip-path="url(#clip0_458_402)">
        <path
            d="M0 25C0 31.6304 2.63392 37.9893 7.32233 42.6777C12.0107 47.3661 18.3696 50 25 50C31.6304 50 37.9893 47.3661 42.6777 42.6777C47.3661 37.9893 50 31.6304 50 25C50 18.3696 47.3661 12.0107 42.6777 7.32233C37.9893 2.63392 31.6304 0 25 0C18.3696 0 12.0107 2.63392 7.32233 7.32233C2.63392 12.0107 0 18.3696 0 25Z"
            fill="#D80027" />
        <path
            d="M27.5811 18.9129C27.013 21.2761 26.0035 20.8254 25.5081 22.8864C22.5898 22.1847 20.7925 19.2502 21.4942 16.3317C22.1956 13.4134 25.1304 11.6162 28.0488 12.3178C27.0579 16.4396 28.0894 16.7994 27.5811 18.9129ZM20.0086 20.6641C22.0805 21.9346 21.3399 22.7556 23.1467 23.8637C21.5776 26.4224 18.2314 27.2247 15.6726 25.6556C13.1139 24.0866 12.3115 20.7402 13.8806 18.1815C17.4945 20.3975 18.1551 19.5277 20.0086 20.6641ZM19.3339 28.4075C21.1826 26.8295 21.7342 27.7876 23.3465 26.4116C25.2952 28.6945 25.0241 32.125 22.7413 34.0737C20.4583 36.0224 17.0278 35.751 15.0794 33.4683C18.3034 30.7161 17.6802 29.8187 19.3339 28.4075ZM26.4897 31.4419C25.56 29.1961 26.6417 28.9672 25.8312 27.0089C28.6046 25.8612 31.7835 27.179 32.9313 29.9523C34.0791 32.7256 32.7611 35.9045 29.9878 37.0523C28.367 33.1354 27.3212 33.4507 26.4897 31.4419ZM31.587 25.5739C29.1638 25.764 29.2801 24.6644 27.1674 24.8302C26.9327 21.8381 29.1684 19.2218 32.1607 18.987C35.1529 18.7527 37.7691 20.9882 38.0037 23.9806C33.7774 24.312 33.7541 25.4041 31.587 25.5739Z"
            fill="#F0F0F0" />
    </g>
    <defs>
        <clipPath id="clip0_458_402">
            <rect width="50" height="50" fill="white" />
        </clipPath>
    </defs>
</svg>