<svg width="50" height="50" viewBox="0 0 50 50" fill="none" xmlns="http://www.w3.org/2000/svg">
    <path
        d="M50.0019 25.1268C50.0019 38.8323 38.8348 49.9999 25.1298 49.9999C11.4248 49.9999 0.257812 38.8323 0.257812 25.1268C0.257812 11.4212 11.4248 0.253662 25.1298 0.253662C38.8348 -0.000145063 50.0019 11.4212 50.0019 25.1268Z"
        fill="#FAFAFA" />
    <path d="M25.1258 0C11.167 0 0 11.1675 0 24.8731V26.9036H24.872V0H25.1258Z" fill="#233CAF" />
    <path
        d="M18.0235 11.1676L17.7698 12.1828L18.5311 11.6752L19.2925 12.1828L19.0387 11.1676L19.8001 10.4062L18.7849 10.1524L18.2773 9.39097L17.7698 10.1524L16.7546 10.4062L18.0235 11.1676ZM19.0387 5.07625L18.5311 4.31483L18.0235 5.07625L17.0084 5.33006L17.7698 6.09148L17.516 7.1067L18.2773 6.59909L19.0387 7.1067L18.7849 6.09148L19.5463 5.33006L19.0387 5.07625ZM3.30337 24.1118L2.79577 23.3504L2.28818 24.1118L1.273 24.3656L2.03439 25.127L1.78059 26.1422L2.54198 25.6346L3.30337 26.1422L3.04957 25.127L3.81096 24.3656L3.30337 24.1118ZM0.511609 22.0813L1.273 21.3199H0.511609C0.511609 21.8275 0.257812 22.3351 0.257812 22.8427L0.765405 23.0965L0.511609 22.0813ZM18.0235 16.7514L17.7698 17.7666L18.5311 17.259L19.2925 17.7666L19.0387 16.7514L19.8001 15.99L18.7849 15.7361L18.2773 14.9747L17.7698 15.7361L16.7546 15.99L18.0235 16.7514ZM3.55716 14.9747L3.30337 13.9595L4.06476 13.1981L3.04957 12.9443V12.6905C2.79577 13.1981 2.54198 13.7057 2.28818 14.4671L2.79577 14.2133L3.55716 14.9747ZM3.30337 18.528L2.79577 17.7666L2.28818 18.528L1.273 18.7818L2.03439 19.5433L1.78059 20.5585L2.54198 20.0509L3.30337 20.5585L3.04957 19.5433L3.81096 18.7818L3.30337 18.528ZM18.0235 22.0813L17.7698 23.0965L18.5311 22.5889L19.2925 23.0965L19.0387 22.0813L19.8001 21.3199L18.7849 21.0661L18.2773 20.3047L17.7698 21.0661L16.7546 21.3199L18.0235 22.0813ZM21.5767 1.52295L21.0691 2.28437L20.0539 2.53818L20.8153 3.2996L20.5615 4.31483L21.3229 3.80721L22.0843 4.31483L21.8305 3.2996L22.5919 2.53818L21.5767 2.28437V1.52295ZM14.978 2.28437H14.7242C14.4704 2.28437 14.4704 2.28437 14.2166 2.53818L14.7242 3.04579L14.4704 4.06102L15.2318 3.55341L15.9932 4.06102L15.7394 3.04579L16.5008 2.28437L15.4856 2.03056L15.2318 1.52295C15.4856 2.03056 15.2318 2.03056 14.978 2.28437ZM21.0691 24.8732L20.8153 25.8884L21.5767 25.3808L22.3381 25.8884L22.0843 24.8732L22.8457 24.1118L21.8305 23.858L21.3229 23.0965L20.8153 23.858L19.8001 24.1118L21.0691 24.8732ZM21.0691 19.2894L20.8153 20.3047L21.5767 19.7971L22.3381 20.3047L22.0843 19.2894L22.8457 18.528L21.8305 18.2742L21.3229 17.5128L20.8153 18.2742L19.8001 18.528L21.0691 19.2894ZM22.0843 7.86813L21.5767 7.1067L21.0691 7.86813L20.0539 8.12193L20.8153 8.88335L20.5615 9.89858L21.3229 9.39097L22.0843 9.89858L21.8305 8.88335L22.5919 8.12193L22.0843 7.86813ZM21.0691 13.9595L20.8153 14.9747L21.5767 14.4671L22.3381 14.9747L22.0843 13.9595L22.8457 13.1981L21.8305 12.9443L21.3229 12.1828L20.8153 12.9443L19.8001 13.1981L21.0691 13.9595ZM6.34892 10.4062L5.84133 9.64478L5.33374 10.4062L4.31855 10.66L5.07994 11.4214L4.82614 12.4367L5.58753 11.929L6.34892 12.4367L6.09513 11.4214L6.85651 10.66L6.34892 10.4062ZM12.6938 21.3199L12.1862 20.5585L11.6786 21.3199L10.6635 21.5737L11.4248 22.3351L11.1711 23.3504L11.9324 22.8427L12.6938 23.3504L12.44 22.3351L13.2014 21.5737L12.6938 21.3199ZM12.6938 15.99L12.1862 15.2285L11.6786 15.99L10.6635 16.2438L11.4248 17.0052L11.1711 18.0204L11.9324 17.5128L12.6938 18.0204L12.44 17.0052L13.2014 16.2438L12.6938 15.99ZM15.7394 13.1981L15.2318 12.4367L14.7242 13.1981L13.709 13.4519L14.4704 14.2133L14.2166 15.2285L14.978 14.7209L15.7394 15.2285L15.4856 14.2133L16.247 13.4519L15.7394 13.1981ZM6.34892 21.3199L5.84133 20.5585L5.33374 21.3199L4.31855 21.5737L5.07994 22.3351L4.82614 23.3504L5.58753 22.8427L6.34892 23.3504L6.09513 22.3351L6.85651 21.5737L6.34892 21.3199ZM15.7394 18.528L15.2318 17.7666L14.7242 18.528L13.709 18.7818L14.4704 19.5433L14.2166 20.5585L14.978 20.0509L15.7394 20.5585L15.4856 19.5433L16.247 18.7818L15.7394 18.528ZM15.7394 24.1118L15.2318 23.3504L14.7242 24.1118L13.709 24.3656L14.4704 25.127L14.2166 26.1422L14.978 25.6346L15.7394 26.1422L15.4856 25.127L16.247 24.3656L15.7394 24.1118ZM15.7394 7.86813L15.2318 7.1067L14.7242 7.86813L13.709 8.12193L14.4704 8.88335L14.2166 9.89858L14.978 9.39097L15.7394 9.89858L15.4856 8.88335L16.247 8.12193L15.7394 7.86813ZM9.39448 7.86813L8.88688 7.1067L8.37929 7.86813L7.36411 8.12193L8.1255 8.88335L7.8717 9.89858L8.63309 9.39097L9.39448 9.89858L9.14068 8.88335L9.90207 8.12193L9.39448 7.86813ZM6.34892 15.99L5.84133 15.2285L5.33374 15.99L4.31855 16.2438L5.07994 17.0052L4.82614 18.0204L5.58753 17.5128L6.34892 18.0204L6.09513 17.0052L6.85651 16.2438L6.34892 15.99ZM9.39448 13.1981L8.88688 12.4367L8.37929 13.1981L7.36411 13.4519L8.1255 14.2133L7.8717 15.2285L8.63309 14.7209L9.39448 15.2285L9.14068 14.2133L9.90207 13.4519L9.39448 13.1981ZM9.39448 18.528L8.88688 17.7666L8.37929 18.528L7.36411 18.7818L8.1255 19.5433L7.8717 20.5585L8.63309 20.0509L9.39448 20.5585L9.14068 19.5433L9.90207 18.7818L9.39448 18.528ZM12.6938 5.07625L12.1862 4.31483L11.6786 5.07625L10.6635 5.33006L11.4248 6.09148L11.1711 7.1067L11.9324 6.59909L12.6938 7.1067L12.44 6.09148L13.2014 5.33006L12.6938 5.07625ZM12.6938 10.4062L12.1862 9.64478L11.6786 10.4062L10.6635 10.66L11.4248 11.4214L11.1711 12.4367L11.9324 11.929L12.6938 12.4367L12.44 11.4214L13.2014 10.66L12.6938 10.4062ZM10.4097 24.1118L9.64827 24.8732L9.90207 25.8884L9.14068 25.3808L8.37929 25.8884L8.63309 24.8732L7.8717 24.1118L8.88688 23.858L9.39448 23.0965L9.90207 23.858L10.4097 24.1118Z"
        fill="#FAFAFA" />
    <path
        d="M7.10662 42.3858H43.1457C44.4147 41.1168 45.4299 39.8477 46.1912 38.3249H4.06107C4.82246 39.8477 5.83764 41.1168 7.10662 42.3858ZM24.8724 50C29.9483 50 34.5166 48.4772 38.3236 45.9391H11.4212C15.4819 48.4772 20.0502 50 24.8724 50ZM49.7444 23.0964H24.8724V27.1574H49.7444V25.1269C49.9982 24.3655 49.9982 23.8579 49.7444 23.0964ZM2.0307 34.7716H48.2216C48.7292 33.5025 49.2368 32.2335 49.4906 30.7107H0.761719C1.01551 32.2335 1.52311 33.5025 2.0307 34.7716ZM25.1262 11.6751H46.1912C45.1761 10.1523 44.1609 8.88325 43.1457 7.61421H25.1262V11.6751ZM25.1262 19.2893H49.4906C49.2368 18.0203 48.7292 16.4975 48.2216 15.2284H25.1262V19.2893ZM25.1262 4.06091H38.5774C34.7704 1.52284 30.2021 0 25.1262 0V4.06091Z"
        fill="#EB0000" />
</svg>