<svg width="38" height="38" viewBox="0 0 38 38" fill="none" xmlns="http://www.w3.org/2000/svg">
    <circle cx="19" cy="19" r="19" fill="black" />
    <path
        d="M21.3483 23.8948L23.4123 20.3198C23.5565 20.0701 23.7939 19.8879 24.0724 19.8133C24.3509 19.7387 24.6476 19.7777 24.8973 19.9219C25.147 20.066 25.3292 20.3035 25.4038 20.5819C25.4784 20.8604 25.4393 21.1572 25.2952 21.4068L22.8955 25.5632C22.7557 25.8162 22.5669 26.0387 22.3401 26.2179C22.1133 26.3971 21.853 26.5292 21.5745 26.6067C21.296 26.6841 21.0049 26.7052 20.7182 26.6688C20.4314 26.6325 20.1548 26.5393 19.9045 26.3948C19.6542 26.2502 19.4352 26.0573 19.2603 25.8271C19.0854 25.597 18.9581 25.3343 18.886 25.0544C18.8138 24.7745 18.7981 24.4831 18.8398 24.1971C18.8816 23.911 18.9799 23.6362 19.1291 23.3887L21.7639 18.8252C22.1964 18.0759 22.9089 17.5292 23.7446 17.3053C24.5802 17.0814 25.4706 17.1986 26.2198 17.6312C26.9691 18.0637 27.5158 18.7762 27.7397 19.6119C27.9636 20.4475 27.8464 21.3379 27.4138 22.0871L25.1147 26.0694"
        stroke="white" stroke-width="1.5" stroke-linecap="round" stroke-linejoin="round" />
    <path
        d="M16 26H14C12.8954 26 12 25.1046 12 24V12C12 10.8954 12.8954 10 14 10H16.5H21.6716C22.202 10 22.7107 10.2107 23.0858 10.5858L25.4142 12.9142C25.7893 13.2893 26 13.798 26 14.3284V15"
        stroke="white" stroke-width="1.5" stroke-linecap="round" stroke-linejoin="round" />
</svg>