<svg width="32" height="32" viewBox="0 0 32 32" fill="none" xmlns="http://www.w3.org/2000/svg">
    <path
        d="M3.80982 9.57725L14.8627 1.86889C15.3237 1.54735 15.9369 1.54949 16.3957 1.87423L27.2753 9.57502C28.6877 10.5748 29.5273 12.1977 29.5273 13.9282V22.6663C29.5273 25.6119 27.1395 27.9997 24.194 27.9997H6.86068C3.91516 27.9997 1.52734 25.6119 1.52734 22.6663V13.9518C1.52734 12.2082 2.37965 10.5747 3.80982 9.57725Z"
        fill="white" />
    <path
        d="M15.7928 9.33301C17.8607 9.33301 19.4882 9.96553 20.6753 11.2503C21.6901 12.3573 22.2071 13.7211 22.2071 15.342C22.2071 16.7256 21.7667 18.0105 20.9242 19.1964C20.0626 20.3627 19.0861 20.9556 17.9756 20.9556C17.1714 20.9556 16.7119 20.5406 16.5778 19.7301C16.0226 20.5603 15.2758 20.9754 14.3568 20.9754C13.4951 20.9754 12.8059 20.6789 12.2697 20.0859C11.7336 19.4929 11.4656 18.7418 11.4656 17.8523C11.4656 16.4687 11.8676 15.2629 12.7101 14.1955C13.5334 13.1084 14.5291 12.5747 15.6779 12.5747C16.5012 12.5747 17.0757 13.0293 17.4203 13.9386L17.6884 12.9503H19.3924L18.0904 17.7733C17.899 18.4848 17.8032 18.9197 17.8032 19.0976C17.8032 19.3546 17.9373 19.4929 18.2245 19.4929C18.7606 19.4929 19.2967 19.1174 19.8328 18.4058C20.4455 17.5756 20.7519 16.5477 20.7519 15.3618C20.7519 14.1362 20.3307 13.0886 19.4882 12.2387C18.55 11.2899 17.2863 10.8353 15.6779 10.8353C13.9547 10.8353 12.5952 11.3887 11.5613 12.5154C10.5274 13.6223 10.0295 15.0653 10.0295 16.8245C10.0295 18.7616 10.5656 20.2441 11.657 21.2324C12.6527 22.1416 14.0887 22.5963 15.946 22.5963C17.1905 22.5963 18.2436 22.3788 19.1244 21.9835C19.8952 21.6177 20.5613 21.0526 21.0582 20.3429H22.8581C22.1879 21.5882 21.1923 22.537 19.8903 23.1695C18.7032 23.7229 17.4012 23.9997 15.946 23.9997C13.4951 23.9997 11.5804 23.3474 10.221 22.0428C8.86155 20.7382 8.19141 18.9592 8.19141 16.7454C8.19141 14.6897 8.84241 12.97 10.1636 11.5864C11.5804 10.0841 13.4569 9.33301 15.7928 9.33301ZM16.0226 14.2944C15.295 14.2944 14.6631 14.6699 14.127 15.4211C13.5989 16.1438 13.3162 17.0261 13.3228 17.9314C13.3228 18.4058 13.4186 18.7616 13.61 18.9988C13.8015 19.2557 14.0887 19.3941 14.5099 19.3941C14.8737 19.3941 15.2375 19.2557 15.5822 18.979C15.9651 18.6627 16.2332 18.2477 16.3864 17.7535L16.7693 16.3303C16.9225 15.7571 16.9991 15.4013 16.9991 15.2827C17.0011 15.1482 16.9748 15.0149 16.9218 14.892C16.8689 14.7692 16.7908 14.6596 16.6927 14.5711C16.6052 14.4802 16.5006 14.4088 16.3854 14.3612C16.2701 14.3136 16.1466 14.2908 16.0226 14.2944Z"
        fill="black" />
</svg>