<svg width="38" height="38" viewBox="0 0 38 38" fill="none" xmlns="http://www.w3.org/2000/svg">
    <circle cx="19" cy="19" r="19" fill="white" />
    <path
        d="M26.6534 13.6353C26.8753 13.8478 26.9999 14.1359 27 14.4363V25.3014C26.9998 25.5246 26.9537 25.7457 26.8642 25.9519C26.7747 26.1581 26.6437 26.3454 26.4786 26.5031C26.3136 26.6609 26.1176 26.7859 25.902 26.8712C25.6864 26.9564 25.4554 27.0002 25.2221 27H13.7739C13.3035 26.9994 12.8526 26.8202 12.52 26.5017C12.1874 26.1833 12.0004 25.7516 12 25.3014V11.7002C12.0002 11.2497 12.1871 10.8177 12.5197 10.499C12.8522 10.1803 13.3033 10.0008 13.7739 10H22.365C22.6788 10.0001 22.9798 10.1194 23.2018 10.3317L26.6534 13.6353Z"
        stroke="black" stroke-width="1.5" stroke-linecap="round" stroke-linejoin="round" />
    <path d="M19.5 19.2467V16.9707" stroke="black" stroke-width="1.5" stroke-linecap="round"
        stroke-linejoin="round" />
    <path
        d="M23.9112 20.2817C24.0137 20.4868 24.0621 20.7148 24.0518 20.9439C24.0415 21.173 23.9727 21.3957 23.8522 21.5908C23.7317 21.7859 23.5632 21.947 23.3629 22.0587C23.1627 22.1705 22.9372 22.2291 22.7078 22.2292H16.2953C16.0659 22.2293 15.8403 22.1707 15.6399 22.059C15.4395 21.9473 15.271 21.7863 15.1504 21.5911C15.0297 21.3961 14.9609 21.1733 14.9506 20.9441C14.9402 20.7149 14.9886 20.4869 15.0912 20.2817L18.2974 13.8692C18.4092 13.6455 18.5809 13.4573 18.7937 13.3257C19.0064 13.1942 19.2515 13.1245 19.5016 13.1245C19.7517 13.1245 19.9968 13.1942 20.2095 13.3257C20.4222 13.4573 20.594 13.6455 20.7057 13.8692L23.9112 20.2817Z"
        stroke="black" stroke-width="1.5" stroke-linecap="round" stroke-linejoin="round" />
</svg>