<svg width="64" height="64" viewBox="0 0 64 64" fill="none" xmlns="http://www.w3.org/2000/svg">
    <path d="M19.5547 48.5927H44.4436" stroke="black" stroke-width="3" />
    <path d="M32 13.037L32 30.2222L32 47.4074" stroke="black" stroke-width="3" />
    <path d="M46.8132 20.7407L17.1836 27.8518" stroke="black" stroke-width="3" />
    <path
        d="M52.4072 27.2101C53.3159 28.4217 53.8066 29.8957 53.8066 31.4103V31.5255H53.8076C53.8076 35.7147 50.4109 39.1105 46.2217 39.1105C42.0328 39.1101 38.6367 35.7145 38.6367 31.5255V31.4103C38.6367 29.8957 39.1284 28.4217 40.0371 27.2101L46.2217 18.963L52.4072 27.2101Z"
        fill="black" />
    <path
        d="M24.6465 37.452C24.6464 41.6411 21.2506 45.037 17.0615 45.037C12.8725 45.0368 9.47667 41.641 9.47656 37.452H9.47754C9.47754 35.8679 10.0151 34.328 11.002 33.0887L16.5879 26.0741L23.0068 33.1844C24.0632 34.3547 24.6475 35.8755 24.6475 37.452H24.6465Z"
        fill="black" />
</svg>