<?xml version="1.0" standalone="no"?>
<!DOCTYPE svg PUBLIC "-//W3C//DTD SVG 20010904//EN"
 "http://www.w3.org/TR/2001/REC-SVG-20010904/DTD/svg10.dtd">
<svg version="1.0" xmlns="http://www.w3.org/2000/svg"
 width="672.000000pt" height="210.000000pt" viewBox="0 0 672.000000 210.000000"
 preserveAspectRatio="xMidYMid meet">
<metadata>
Created by potrace 1.16, written by Peter Selinger 2001-2019
</metadata>
<g transform="translate(0.000000,210.000000) scale(0.100000,-0.100000)"
fill="#ffffff" stroke="none">
<path d="M340 1125 l0 -775 545 0 545 0 0 115 0 115 -415 0 -415 0 0 660 0
660 -130 0 -130 0 0 -775z"/>
<path d="M4200 1670 l0 -170 -105 0 -105 0 0 -100 0 -99 103 -3 102 -3 5 -410
5 -410 24 -39 c16 -26 40 -46 75 -62 48 -23 61 -24 259 -24 l207 0 0 100 0
100 -155 0 -155 0 0 375 0 375 140 0 140 0 0 100 0 100 -145 0 -145 0 0 170 0
170 -125 0 -125 0 0 -170z"/>
<path d="M1950 1505 c-177 -40 -323 -164 -385 -328 -71 -191 -49 -445 53 -603
105 -162 273 -244 502 -244 181 0 297 41 407 144 61 56 113 140 129 209 l6 27
-131 0 -131 0 -19 -38 c-25 -49 -78 -96 -128 -113 -23 -9 -78 -14 -138 -14
-82 1 -109 5 -152 24 -95 42 -174 154 -185 261 l-3 35 449 3 449 2 -6 108
c-12 187 -52 289 -156 393 -103 102 -197 138 -376 145 -82 2 -140 -1 -185 -11z
m305 -224 c84 -37 135 -103 159 -203 l6 -28 -320 0 -321 0 6 23 c37 122 114
198 229 228 58 15 187 4 241 -20z"/>
<path d="M5300 1505 c-109 -24 -218 -85 -288 -159 -105 -112 -152 -243 -152
-421 0 -175 47 -307 146 -414 65 -71 125 -111 219 -147 91 -35 279 -45 394
-20 236 50 393 220 432 467 14 89 6 232 -17 309 -55 186 -182 315 -373 377
-67 21 -279 26 -361 8z m293 -233 c128 -44 207 -177 207 -352 0 -145 -68 -278
-170 -330 -119 -61 -298 -44 -393 36 -144 121 -160 420 -30 564 90 100 239
132 386 82z"/>
<path d="M2812 1492 c2 -5 95 -129 208 -276 113 -147 206 -270 207 -274 2 -4
-96 -136 -217 -294 -121 -158 -220 -290 -220 -293 0 -3 62 -5 138 -5 163 0
126 -26 303 208 68 90 131 172 139 183 14 18 24 7 170 -186 l155 -205 147 0
147 0 -225 295 -224 294 210 275 c115 151 210 277 210 280 0 3 -62 6 -139 6
l-139 0 -146 -190 c-81 -104 -149 -190 -150 -190 -2 0 -68 85 -147 190 l-144
190 -143 0 c-79 0 -142 -4 -140 -8z"/>
</g>
</svg>
