<svg width="64" height="96" viewBox="0 0 64 96" fill="none" xmlns="http://www.w3.org/2000/svg">
    <mask id="path-1-inside-1_338_156" fill="white">
        <path
            d="M16 96H0V78H16V96ZM40 96H24V78H40V96ZM64 96H48V78H64V96ZM16 70H0V52H16V70ZM40 70H24V52H40V70ZM64 70H48V52H64V70ZM16 44H0V26H16V44ZM40 44H24V26H40V44ZM64 44H48V26H64V44ZM16 18H0V0H16V18ZM40 18H24V0H40V18ZM64 18H48V0H64V18Z" />
    </mask>
    <path
        d="M16 96H0V78H16V96ZM40 96H24V78H40V96ZM64 96H48V78H64V96ZM16 70H0V52H16V70ZM40 70H24V52H40V70ZM64 70H48V52H64V70ZM16 44H0V26H16V44ZM40 44H24V26H40V44ZM64 44H48V26H64V44ZM16 18H0V0H16V18ZM40 18H24V0H40V18ZM64 18H48V0H64V18Z"
        fill="black" />
    <path
        d="M16 96V98H18V96H16ZM0 96H-2V98H0V96ZM0 78V76H-2V78H0ZM16 78H18V76H16V78ZM40 96V98H42V96H40ZM24 96H22V98H24V96ZM24 78V76H22V78H24ZM40 78H42V76H40V78ZM64 96V98H66V96H64ZM48 96H46V98H48V96ZM48 78V76H46V78H48ZM64 78H66V76H64V78ZM16 70V72H18V70H16ZM0 70H-2V72H0V70ZM0 52V50H-2V52H0ZM16 52H18V50H16V52ZM40 70V72H42V70H40ZM24 70H22V72H24V70ZM24 52V50H22V52H24ZM40 52H42V50H40V52ZM64 70V72H66V70H64ZM48 70H46V72H48V70ZM48 52V50H46V52H48ZM64 52H66V50H64V52ZM16 44V46H18V44H16ZM0 44H-2V46H0V44ZM0 26V24H-2V26H0ZM16 26H18V24H16V26ZM40 44V46H42V44H40ZM24 44H22V46H24V44ZM24 26V24H22V26H24ZM40 26H42V24H40V26ZM64 44V46H66V44H64ZM48 44H46V46H48V44ZM48 26V24H46V26H48ZM64 26H66V24H64V26ZM16 18V20H18V18H16ZM0 18H-2V20H0V18ZM0 0V-2H-2V0H0ZM16 0H18V-2H16V0ZM40 18V20H42V18H40ZM24 18H22V20H24V18ZM24 0V-2H22V0H24ZM40 0H42V-2H40V0ZM64 18V20H66V18H64ZM48 18H46V20H48V18ZM48 0V-2H46V0H48ZM64 0H66V-2H64V0ZM16 96V94H0V96V98H16V96ZM0 96H2V78H0H-2V96H0ZM0 78V80H16V78V76H0V78ZM16 78H14V96H16H18V78H16ZM40 96V94H24V96V98H40V96ZM24 96H26V78H24H22V96H24ZM24 78V80H40V78V76H24V78ZM40 78H38V96H40H42V78H40ZM64 96V94H48V96V98H64V96ZM48 96H50V78H48H46V96H48ZM48 78V80H64V78V76H48V78ZM64 78H62V96H64H66V78H64ZM16 70V68H0V70V72H16V70ZM0 70H2V52H0H-2V70H0ZM0 52V54H16V52V50H0V52ZM16 52H14V70H16H18V52H16ZM40 70V68H24V70V72H40V70ZM24 70H26V52H24H22V70H24ZM24 52V54H40V52V50H24V52ZM40 52H38V70H40H42V52H40ZM64 70V68H48V70V72H64V70ZM48 70H50V52H48H46V70H48ZM48 52V54H64V52V50H48V52ZM64 52H62V70H64H66V52H64ZM16 44V42H0V44V46H16V44ZM0 44H2V26H0H-2V44H0ZM0 26V28H16V26V24H0V26ZM16 26H14V44H16H18V26H16ZM40 44V42H24V44V46H40V44ZM24 44H26V26H24H22V44H24ZM24 26V28H40V26V24H24V26ZM40 26H38V44H40H42V26H40ZM64 44V42H48V44V46H64V44ZM48 44H50V26H48H46V44H48ZM48 26V28H64V26V24H48V26ZM64 26H62V44H64H66V26H64ZM16 18V16H0V18V20H16V18ZM0 18H2V0H0H-2V18H0ZM0 0V2H16V0V-2H0V0ZM16 0H14V18H16H18V0H16ZM40 18V16H24V18V20H40V18ZM24 18H26V0H24H22V18H24ZM24 0V2H40V0V-2H24V0ZM40 0H38V18H40H42V0H40ZM64 18V16H48V18V20H64V18ZM48 18H50V0H48H46V18H48ZM48 0V2H64V0V-2H48V0ZM64 0H62V18H64H66V0H64Z"
        fill="black" mask="url(#path-1-inside-1_338_156)" />
</svg>