<svg width="80" height="112" viewBox="0 0 80 112" fill="none" xmlns="http://www.w3.org/2000/svg">
    <g filter="url(#filter0_di_338_20)">
        <mask id="path-1-inside-1_338_20" fill="white">
            <path
                d="M24 100H8V82H24V100ZM48 100H32V82H48V100ZM72 100H56V82H72V100ZM24 74H8V56H24V74ZM48 74H32V56H48V74ZM72 74H56V56H72V74ZM24 48H8V30H24V48ZM48 48H32V30H48V48ZM72 48H56V30H72V48ZM24 22H8V4H24V22ZM48 22H32V4H48V22ZM72 22H56V4H72V22Z" />
        </mask>
        <path
            d="M24 100H8V82H24V100ZM48 100H32V82H48V100ZM72 100H56V82H72V100ZM24 74H8V56H24V74ZM48 74H32V56H48V74ZM72 74H56V56H72V74ZM24 48H8V30H24V48ZM48 48H32V30H48V48ZM72 48H56V30H72V48ZM24 22H8V4H24V22ZM48 22H32V4H48V22ZM72 22H56V4H72V22Z"
            fill="url(#paint0_linear_338_20)" />
        <path
            d="M24 100V102H26V100H24ZM8 100H6V102H8V100ZM8 82V80H6V82H8ZM24 82H26V80H24V82ZM48 100V102H50V100H48ZM32 100H30V102H32V100ZM32 82V80H30V82H32ZM48 82H50V80H48V82ZM72 100V102H74V100H72ZM56 100H54V102H56V100ZM56 82V80H54V82H56ZM72 82H74V80H72V82ZM24 74V76H26V74H24ZM8 74H6V76H8V74ZM8 56V54H6V56H8ZM24 56H26V54H24V56ZM48 74V76H50V74H48ZM32 74H30V76H32V74ZM32 56V54H30V56H32ZM48 56H50V54H48V56ZM72 74V76H74V74H72ZM56 74H54V76H56V74ZM56 56V54H54V56H56ZM72 56H74V54H72V56ZM24 48V50H26V48H24ZM8 48H6V50H8V48ZM8 30V28H6V30H8ZM24 30H26V28H24V30ZM48 48V50H50V48H48ZM32 48H30V50H32V48ZM32 30V28H30V30H32ZM48 30H50V28H48V30ZM72 48V50H74V48H72ZM56 48H54V50H56V48ZM56 30V28H54V30H56ZM72 30H74V28H72V30ZM24 22V24H26V22H24ZM8 22H6V24H8V22ZM8 4V2H6V4H8ZM24 4H26V2H24V4ZM48 22V24H50V22H48ZM32 22H30V24H32V22ZM32 4V2H30V4H32ZM48 4H50V2H48V4ZM72 22V24H74V22H72ZM56 22H54V24H56V22ZM56 4V2H54V4H56ZM72 4H74V2H72V4ZM24 100V98H8V100V102H24V100ZM8 100H10V82H8H6V100H8ZM8 82V84H24V82V80H8V82ZM24 82H22V100H24H26V82H24ZM48 100V98H32V100V102H48V100ZM32 100H34V82H32H30V100H32ZM32 82V84H48V82V80H32V82ZM48 82H46V100H48H50V82H48ZM72 100V98H56V100V102H72V100ZM56 100H58V82H56H54V100H56ZM56 82V84H72V82V80H56V82ZM72 82H70V100H72H74V82H72ZM24 74V72H8V74V76H24V74ZM8 74H10V56H8H6V74H8ZM8 56V58H24V56V54H8V56ZM24 56H22V74H24H26V56H24ZM48 74V72H32V74V76H48V74ZM32 74H34V56H32H30V74H32ZM32 56V58H48V56V54H32V56ZM48 56H46V74H48H50V56H48ZM72 74V72H56V74V76H72V74ZM56 74H58V56H56H54V74H56ZM56 56V58H72V56V54H56V56ZM72 56H70V74H72H74V56H72ZM24 48V46H8V48V50H24V48ZM8 48H10V30H8H6V48H8ZM8 30V32H24V30V28H8V30ZM24 30H22V48H24H26V30H24ZM48 48V46H32V48V50H48V48ZM32 48H34V30H32H30V48H32ZM32 30V32H48V30V28H32V30ZM48 30H46V48H48H50V30H48ZM72 48V46H56V48V50H72V48ZM56 48H58V30H56H54V48H56ZM56 30V32H72V30V28H56V30ZM72 30H70V48H72H74V30H72ZM24 22V20H8V22V24H24V22ZM8 22H10V4H8H6V22H8ZM8 4V6H24V4V2H8V4ZM24 4H22V22H24H26V4H24ZM48 22V20H32V22V24H48V22ZM32 22H34V4H32H30V22H32ZM32 4V6H48V4V2H32V4ZM48 4H46V22H48H50V4H48ZM72 22V20H56V22V24H72V22ZM56 22H58V4H56H54V22H56ZM56 4V6H72V4V2H56V4ZM72 4H70V22H72H74V4H72Z"
            fill="url(#paint1_linear_338_20)" mask="url(#path-1-inside-1_338_20)" />
    </g>
    <defs>
        <filter id="filter0_di_338_20" x="0" y="0" width="80" height="112"
            filterUnits="userSpaceOnUse" color-interpolation-filters="sRGB">
            <feFlood flood-opacity="0" result="BackgroundImageFix" />
            <feColorMatrix in="SourceAlpha" type="matrix"
                values="0 0 0 0 0 0 0 0 0 0 0 0 0 0 0 0 0 0 127 0" result="hardAlpha" />
            <feOffset dy="4" />
            <feGaussianBlur stdDeviation="4" />
            <feComposite in2="hardAlpha" operator="out" />
            <feColorMatrix type="matrix"
                values="0 0 0 0 0.196078 0 0 0 0 0.286275 0 0 0 0 0.596078 0 0 0 0.16 0" />
            <feBlend mode="normal" in2="BackgroundImageFix" result="effect1_dropShadow_338_20" />
            <feBlend mode="normal" in="SourceGraphic" in2="effect1_dropShadow_338_20" result="shape" />
            <feColorMatrix in="SourceAlpha" type="matrix"
                values="0 0 0 0 0 0 0 0 0 0 0 0 0 0 0 0 0 0 127 0" result="hardAlpha" />
            <feOffset />
            <feGaussianBlur stdDeviation="2" />
            <feComposite in2="hardAlpha" operator="arithmetic" k2="-1" k3="1" />
            <feColorMatrix type="matrix"
                values="0 0 0 0 0.196078 0 0 0 0 0.286275 0 0 0 0 0.596078 0 0 0 0.2 0" />
            <feBlend mode="normal" in2="shape" result="effect2_innerShadow_338_20" />
        </filter>
        <linearGradient id="paint0_linear_338_20" x1="69.3053" y1="100" x2="-10.9244" y2="68.4734"
            gradientUnits="userSpaceOnUse">
            <stop stop-color="#324998" />
            <stop offset="1" stop-color="#4461C8" />
        </linearGradient>
        <linearGradient id="paint1_linear_338_20" x1="69.9789" y1="58.0583" x2="10.0211"
            y2="58.0583" gradientUnits="userSpaceOnUse">
            <stop stop-color="#324998" />
            <stop offset="1" stop-color="#4461C8" />
        </linearGradient>
    </defs>
</svg>