<svg width="38" height="38" viewBox="0 0 38 38" fill="none" xmlns="http://www.w3.org/2000/svg">
    <circle cx="19" cy="19" r="19" fill="black" />
    <path
        d="M18.2617 18.8503C18.2617 18.984 18.2881 19.1165 18.3393 19.2401C18.3905 19.3637 18.4655 19.476 18.5601 19.5706C18.6547 19.6652 18.767 19.7402 18.8906 19.7914C19.0142 19.8426 19.1467 19.869 19.2804 19.869C19.4142 19.869 19.5467 19.8426 19.6703 19.7914C19.7939 19.7402 19.9062 19.6652 20.0008 19.5706C20.0954 19.476 20.1704 19.3637 20.2216 19.2401C20.2728 19.1165 20.2992 18.984 20.2992 18.8503C20.2992 18.7165 20.2728 18.584 20.2216 18.4604C20.1704 18.3368 20.0954 18.2245 20.0008 18.1299C19.9062 18.0353 19.7939 17.9603 19.6703 17.9091C19.5467 17.8579 19.4142 17.8315 19.2804 17.8315C19.1467 17.8315 19.0142 17.8579 18.8906 17.9091C18.767 17.9603 18.6547 18.0353 18.5601 18.1299C18.4655 18.2245 18.3905 18.3368 18.3393 18.4604C18.2881 18.584 18.2617 18.7165 18.2617 18.8503Z"
        stroke="white" stroke-width="1.5" stroke-linecap="round" stroke-linejoin="round" />
    <path
        d="M23.3045 12.0857C23.2465 12.047 23.1811 12.0207 23.1125 12.0082C23.0439 11.9958 22.9734 11.9975 22.9055 12.0133C22.8375 12.029 22.7735 12.0585 22.7174 12.1C22.6613 12.1414 22.6143 12.1938 22.5792 12.2541L20.6776 15.5466C20.6109 15.6621 20.5922 15.7991 20.6255 15.9283C20.6588 16.0574 20.7413 16.1684 20.8555 16.2373C21.2433 16.47 21.5746 16.786 21.8252 17.1625C22.0759 17.5389 22.2397 17.9664 22.3048 18.414C22.3223 18.5351 22.3829 18.6459 22.4754 18.726C22.568 18.806 22.6863 18.8501 22.8087 18.85H26.3946C26.4644 18.8501 26.5335 18.8359 26.5975 18.8082C26.6616 18.7805 26.7193 18.7399 26.7669 18.6889C26.8146 18.6379 26.8512 18.5777 26.8746 18.5119C26.8979 18.4461 26.9075 18.3763 26.9026 18.3066C26.8193 17.0634 26.4515 15.856 25.8276 14.7774C25.2038 13.6988 24.3406 12.7779 23.3045 12.0857Z"
        stroke="white" stroke-width="1.5" stroke-linecap="round" stroke-linejoin="round" />
    <path
        d="M17.7017 16.2372C17.816 16.1684 17.8987 16.0574 17.932 15.9282C17.9653 15.799 17.9465 15.6619 17.8797 15.5465L15.9781 12.254C15.9432 12.1941 15.8964 12.1419 15.8406 12.1007C15.7849 12.0595 15.7213 12.0301 15.6537 12.0143C15.5862 11.9986 15.5162 11.9967 15.4479 12.009C15.3797 12.0212 15.3146 12.0473 15.2568 12.0856C14.2206 12.7777 13.3572 13.6986 12.7331 14.7772C12.109 15.8557 11.741 17.0632 11.6573 18.3065C11.6528 18.3761 11.6625 18.4458 11.686 18.5115C11.7095 18.5771 11.7461 18.6372 11.7937 18.6881C11.8413 18.7391 11.8989 18.7797 11.9628 18.8075C12.0267 18.8353 12.0956 18.8497 12.1653 18.8498H15.7512C15.8736 18.85 15.992 18.8059 16.0845 18.7258C16.1771 18.6458 16.2377 18.535 16.2551 18.4138C16.3203 17.9666 16.4839 17.5395 16.734 17.1631C16.9842 16.7867 17.3147 16.4705 17.7017 16.2372Z"
        stroke="white" stroke-width="1.5" stroke-linecap="round" stroke-linejoin="round" />
    <path
        d="M20.7967 21.4858C20.3368 21.761 19.811 21.9063 19.2751 21.9063C18.7392 21.9063 18.2133 21.761 17.7535 21.4858L15.4668 25.4473C15.432 25.5076 15.4098 25.5744 15.4018 25.6436C15.3938 25.7128 15.4 25.7829 15.4202 25.8496C15.4403 25.9163 15.4738 25.9781 15.5187 26.0313C15.5637 26.0846 15.619 26.128 15.6814 26.159C16.7986 26.7121 18.0285 26.9998 19.2751 26.9998C20.5217 26.9998 21.7515 26.7121 22.8688 26.159C22.9313 26.1282 22.9869 26.0849 23.032 26.0317C23.0771 25.9786 23.1108 25.9167 23.131 25.8499C23.1512 25.7832 23.1575 25.713 23.1494 25.6437C23.1413 25.5745 23.1191 25.5076 23.0841 25.4473L20.7967 21.4858Z"
        stroke="white" stroke-width="1.5" stroke-linecap="round" stroke-linejoin="round" />
</svg>