<svg width="38" height="38" viewBox="0 0 38 38" fill="none" xmlns="http://www.w3.org/2000/svg">
    <circle cx="19" cy="19" r="19" fill="black" />
    <path
        d="M19.2821 11C21.0907 11.0008 22.8492 11.5939 24.289 12.6886C25.7286 13.7833 26.7702 15.3193 27.2544 17.0619C27.7386 18.8044 27.6389 20.6577 26.9704 22.3382C26.3019 24.0187 25.1014 25.434 23.5526 26.3678C22.0037 27.3016 20.1916 27.7025 18.3934 27.5092C16.5952 27.3158 14.9097 26.5389 13.5947 25.2972C12.2798 24.0555 11.4076 22.4173 11.1116 20.6331C10.8156 18.8489 11.1121 17.0169 11.9557 15.4171"
        stroke="white" stroke-width="1.5" stroke-linecap="round" stroke-linejoin="round" />
    <path
        d="M19.2812 15.7305C20.0563 15.7308 20.81 15.985 21.427 16.4542C22.044 16.9233 22.4904 17.5816 22.6979 18.3284C22.9054 19.0752 22.8627 19.8695 22.5762 20.5897C22.2897 21.3099 21.7752 21.9165 21.1114 22.3167C20.4476 22.7169 19.671 22.8887 18.9003 22.8058C18.1296 22.723 17.4073 22.39 16.8438 21.8578C16.2802 21.3257 15.9064 20.6236 15.7796 19.8589C15.6527 19.0943 15.6424 18.1856 16.0039 17.5"
        stroke="white" stroke-width="1.5" stroke-linecap="round" stroke-linejoin="round" />
    <path d="M13.3008 13.2983L19.2785 19.2784" stroke="white" stroke-width="1.5"
        stroke-linecap="round" stroke-linejoin="round" />
</svg>