<svg width="72" height="72" viewBox="0 0 72 72" fill="none" xmlns="http://www.w3.org/2000/svg">
    <g clip-path="url(#clip0_338_41)">
        <g filter="url(#filter0_di_338_41)">
            <path
                d="M55.7771 59.1957C62.484 56.3777 66.7205 50.9949 72.0169 44.777L0 46.7183L1.40903 57.9605C1.58857 58.9855 2.136 59.9097 2.94858 60.5597C3.76116 61.2097 4.78303 61.5408 5.82241 61.4909H43.0661C47.4044 61.4778 51.7066 60.7008 55.7755 59.1957H55.7771ZM59.3075 35.7348H68.8387V41.2065L59.3075 41.2065V35.7348ZM47.481 27.6157H57.0123V36.3504H47.481V27.6157ZM47.481 35.7348H57.0123V41.2144L47.481 41.5666V35.7411V35.7348ZM35.6546 27.6157H45.1859V36.3504H35.6546V27.6157ZM35.6546 35.7348H45.1859V41.5603L35.6546 41.9126V35.7348ZM2.29358 35.7348H11.8249V42.4418L5.47015 42.6187H2.29515V35.7301L2.29358 35.7348ZM21.533 27.6157H33.5364V41.7373L13.9431 42.2664V14.2002H21.533V27.6157Z"
                fill="url(#paint0_linear_338_41)" />
            <path
                d="M69.8047 45.8359C65.1378 51.334 61.2445 55.8055 55.4102 58.2637C51.4568 59.7236 47.2779 60.4784 43.0635 60.4912H5.79883L5.77441 60.4922C4.97832 60.5304 4.19563 60.2762 3.57324 59.7783C2.95567 59.2842 2.53814 58.5836 2.39746 57.8057L1.12891 47.6875L69.8047 45.8359ZM10.8252 36.7344V41.4688L5.44238 41.6191H3.29492V36.7344H10.8252ZM20.5332 15.2002V28.6152H32.5361V40.7627L14.9434 41.2383V15.2002H20.5332ZM44.1855 37.3506V40.5957L36.6543 40.874V37.3506H44.1855ZM56.0127 37.3506V40.25L48.4814 40.5283V37.3506H56.0127ZM67.8389 36.7344V40.2061H60.3076V36.7344H67.8389ZM56.0127 28.6152V34.7344H48.4814V28.6152H56.0127ZM44.1855 28.6152V34.7344H36.6543V28.6152H44.1855Z"
                stroke="url(#paint1_linear_338_41)" stroke-width="2" />
        </g>
    </g>
    <defs>
        <filter id="filter0_di_338_41" x="-8" y="10.2002" width="88.0156" height="63.2959"
            filterUnits="userSpaceOnUse" color-interpolation-filters="sRGB">
            <feFlood flood-opacity="0" result="BackgroundImageFix" />
            <feColorMatrix in="SourceAlpha" type="matrix"
                values="0 0 0 0 0 0 0 0 0 0 0 0 0 0 0 0 0 0 127 0" result="hardAlpha" />
            <feOffset dy="4" />
            <feGaussianBlur stdDeviation="4" />
            <feComposite in2="hardAlpha" operator="out" />
            <feColorMatrix type="matrix"
                values="0 0 0 0 0.196078 0 0 0 0 0.286275 0 0 0 0 0.596078 0 0 0 0.16 0" />
            <feBlend mode="normal" in2="BackgroundImageFix" result="effect1_dropShadow_338_41" />
            <feBlend mode="normal" in="SourceGraphic" in2="effect1_dropShadow_338_41" result="shape" />
            <feColorMatrix in="SourceAlpha" type="matrix"
                values="0 0 0 0 0 0 0 0 0 0 0 0 0 0 0 0 0 0 127 0" result="hardAlpha" />
            <feOffset />
            <feGaussianBlur stdDeviation="2" />
            <feComposite in2="hardAlpha" operator="arithmetic" k2="-1" k3="1" />
            <feColorMatrix type="matrix"
                values="0 0 0 0 0.196078 0 0 0 0 0.286275 0 0 0 0 0.596078 0 0 0 0.2 0" />
            <feBlend mode="normal" in2="shape" result="effect2_innerShadow_338_41" />
        </filter>
        <linearGradient id="paint0_linear_338_41" x1="68.9846" y1="61.4958" x2="11.2627"
            y2="9.68894" gradientUnits="userSpaceOnUse">
            <stop stop-color="#324998" />
            <stop offset="1" stop-color="#4461C8" />
        </linearGradient>
        <linearGradient id="paint1_linear_338_41" x1="69.7427" y1="40.8327" x2="2.27422"
            y2="40.8327" gradientUnits="userSpaceOnUse">
            <stop stop-color="#324998" />
            <stop offset="1" stop-color="#4461C8" />
        </linearGradient>
        <clipPath id="clip0_338_41">
            <rect width="72" height="72" fill="white" />
        </clipPath>
    </defs>
</svg>