<svg width="72" height="72" viewBox="0 0 72 72" fill="none" xmlns="http://www.w3.org/2000/svg">
    <g clip-path="url(#clip0_338_177)">
        <path
            d="M69.8047 45.8359C65.1378 51.334 61.2445 55.8055 55.4102 58.2637C51.4568 59.7236 47.2779 60.4784 43.0635 60.4912H5.79883L5.77441 60.4922C4.97832 60.5304 4.19563 60.2762 3.57324 59.7783C2.95567 59.2842 2.53814 58.5836 2.39746 57.8057L1.12891 47.6875L69.8047 45.8359ZM10.8252 36.7344V41.4688L5.44238 41.6191H3.29492V36.7344H10.8252ZM20.5332 15.2002V28.6152H32.5361V40.7627L14.9434 41.2383V15.2002H20.5332ZM44.1855 37.3506V40.5957L36.6543 40.874V37.3506H44.1855ZM56.0127 37.3506V40.25L48.4814 40.5283V37.3506H56.0127ZM67.8389 36.7344V40.2061H60.3076V36.7344H67.8389ZM56.0127 28.6152V34.7344H48.4814V28.6152H56.0127ZM44.1855 28.6152V34.7344H36.6543V28.6152H44.1855Z"
            fill="black" stroke="black" stroke-width="2" />
    </g>
    <defs>
        <clipPath id="clip0_338_177">
            <rect width="72" height="72" fill="white" />
        </clipPath>
    </defs>
</svg>