<svg width="32" height="32" viewBox="0 0 32 32" fill="none" xmlns="http://www.w3.org/2000/svg">
    <g opacity="0.5">
        <mask id="mask0_256_1188" style="mask-type:luminance" maskUnits="userSpaceOnUse" x="0" y="0"
            width="32" height="32">
            <path d="M32 0H0V32H32V0Z" fill="white" />
        </mask>
        <g mask="url(#mask0_256_1188)">
            <path fill-rule="evenodd" clip-rule="evenodd"
                d="M16 5.33301C16 5.33301 26.0064 5.33278 28.5016 5.96987C29.8792 6.32107 30.9626 7.35264 31.3312 8.66463C31.9934 11.0258 31.9998 15.9388 32 15.999C32 15.999 32.0003 20.9591 31.3312 23.3348C30.9624 24.6467 29.8792 25.677 28.5016 26.0281C26.0069 26.6653 16 26.6663 16 26.6663C15.9949 26.6663 5.99243 26.6651 3.49844 26.0281C2.12077 25.677 1.03754 24.6468 0.66875 23.3348C-0.000332832 20.9591 3.28785e-10 15.999 3.28785e-10 15.999C2.56003e-05 15.9388 0.00384159 11.0258 0.66875 8.66463C1.03754 7.35264 2.12077 6.32107 3.49844 5.96987C5.9929 5.33293 15.9949 5.33301 16 5.33301ZM12.7969 20.5701L21.1109 16.0004L12.7969 11.4293V20.5701Z"
                fill="white" />
        </g>
    </g>
</svg>