<svg width="30" height="27" viewBox="0 0 30 27" fill="none" xmlns="http://www.w3.org/2000/svg">
    <path fill-rule="evenodd" clip-rule="evenodd"
        d="M16.2671 0.960674C15.5336 -0.320225 14.3666 -0.320225 13.6331 0.960674L0.313058 24.6742C-0.420456 25.9719 0.179696 27 1.64672 27H8.33172C9.68207 26.9158 10.899 26.191 11.6325 25.0449L19.6846 10.9382C20.2681 9.72475 20.2681 8.29214 19.6846 7.07862L17.284 2.8146L16.2671 0.960674ZM25.1191 16.5673C24.3856 15.2864 23.202 15.2864 22.4685 16.5673L17.8173 24.6741C17.1004 25.9549 17.7006 26.9999 19.1509 26.9999H28.3533C29.8203 26.9999 30.4204 25.9549 29.6869 24.6741L25.1191 16.5673Z"
        fill="white" />
</svg>